<mxfile host="app.diagrams.net" agent="Mozilla/5.0 (Windows NT 10.0; Win64; x64; rv:132.0) Gecko/20100101 Firefox/132.0" version="28.2.3">
  <diagram name="Page-1" id="pm7sASwycBhiSYfKX5r0">
    <mxGraphModel dx="1188" dy="633" grid="1" gridSize="10" guides="1" tooltips="1" connect="1" arrows="1" fold="1" page="1" pageScale="1" pageWidth="850" pageHeight="1100" math="0" shadow="0">
      <root>
        <mxCell id="0" />
        <mxCell id="1" parent="0" />
        <mxCell id="YynNyyFr-qXQ2j84sXs9-31" value="" style="verticalLabelPosition=bottom;html=1;verticalAlign=top;align=center;strokeColor=none;fillColor=#00BEF2;shape=mxgraph.azure.user;" parent="1" vertex="1">
          <mxGeometry x="50" y="170" width="60" height="60" as="geometry" />
        </mxCell>
        <mxCell id="YynNyyFr-qXQ2j84sXs9-9" value="Jenga" style="swimlane;whiteSpace=wrap;html=1;swimlaneFillColor=none;connectable=1;noLabel=0;swimlaneHead=1;absoluteArcSize=0;fixDash=0;dropTarget=1;collapsible=0;horizontal=1;swimlaneBody=1;fillOpacity=0;strokeOpacity=100;align=left;fontStyle=1;fontSize=16;dashed=1;strokeWidth=3;swimlaneLine=0;fillColor=light-dark(#FFFFFF,#415666);" parent="1" vertex="1">
          <mxGeometry x="190" y="30" width="620" height="540" as="geometry" />
        </mxCell>
        <mxCell id="YynNyyFr-qXQ2j84sXs9-27" value="Frontend" style="swimlane;whiteSpace=wrap;html=1;collapsible=0;swimlaneLine=0;align=left;fillStyle=auto;swimlaneFillColor=light-dark(#FFFFFF,#415666);fillColor=light-dark(#FFFFFF,#2E3E49);strokeColor=default;strokeWidth=1;" parent="YynNyyFr-qXQ2j84sXs9-9" vertex="1">
          <mxGeometry x="20" y="140" width="150" height="180" as="geometry" />
        </mxCell>
        <mxCell id="YynNyyFr-qXQ2j84sXs9-35" value="AI Assistant" style="sketch=0;points=[[0,0,0],[0.25,0,0],[0.5,0,0],[0.75,0,0],[1,0,0],[0,1,0],[0.25,1,0],[0.5,1,0],[0.75,1,0],[1,1,0],[0,0.25,0],[0,0.5,0],[0,0.75,0],[1,0.25,0],[1,0.5,0],[1,0.75,0]];outlineConnect=0;fontColor=#232F3E;fillColor=#01A88D;strokeColor=#ffffff;dashed=0;verticalLabelPosition=bottom;verticalAlign=top;align=center;html=1;fontSize=12;fontStyle=0;aspect=fixed;shape=mxgraph.aws4.resourceIcon;resIcon=mxgraph.aws4.augmented_ai;" parent="YynNyyFr-qXQ2j84sXs9-27" vertex="1">
          <mxGeometry x="31" y="100" width="49" height="49" as="geometry" />
        </mxCell>
        <mxCell id="VnRb6XbTlzkvroJsAbk5-56" value="" style="shape=image;verticalLabelPosition=bottom;labelBackgroundColor=default;verticalAlign=top;aspect=fixed;imageAspect=0;image=https://www.solidjs.com/img/logo/dark-with-wordmark/logo.png;shadow=1;" vertex="1" parent="YynNyyFr-qXQ2j84sXs9-27">
          <mxGeometry x="63.92" width="86.08" height="15.92" as="geometry" />
        </mxCell>
        <mxCell id="VnRb6XbTlzkvroJsAbk5-57" value="" style="shape=image;verticalLabelPosition=bottom;labelBackgroundColor=default;verticalAlign=top;aspect=fixed;imageAspect=0;image=https://upload.wikimedia.org/wikipedia/commons/thumb/d/d5/Progressive_Web_Apps_Logo.svg/1920px-Progressive_Web_Apps_Logo.svg.png;" vertex="1" parent="YynNyyFr-qXQ2j84sXs9-27">
          <mxGeometry x="86.49000000000001" y="60" width="53.09" height="20" as="geometry" />
        </mxCell>
        <mxCell id="VnRb6XbTlzkvroJsAbk5-58" value="" style="sketch=0;outlineConnect=0;fontColor=#ffffff;strokeColor=#001DBC;fillColor=#0050ef;dashed=0;verticalLabelPosition=bottom;verticalAlign=top;align=center;html=1;fontSize=12;fontStyle=0;aspect=fixed;shape=mxgraph.aws4.illustration_devices;pointerEvents=1" vertex="1" parent="YynNyyFr-qXQ2j84sXs9-27">
          <mxGeometry x="15.21" y="30" width="54.79" height="40" as="geometry" />
        </mxCell>
        <mxCell id="YynNyyFr-qXQ2j84sXs9-32" value="Backend" style="swimlane;whiteSpace=wrap;html=1;collapsible=0;swimlaneLine=0;align=left;swimlaneFillColor=light-dark(#FFFFFF,#415666);fillColor=light-dark(#FFFFFF,#2E3E49);" parent="YynNyyFr-qXQ2j84sXs9-9" vertex="1">
          <mxGeometry x="190" y="40" width="400" height="470" as="geometry" />
        </mxCell>
        <mxCell id="XopqGps_fkm1R8-ZwHp_-6" value="Server" style="swimlane;whiteSpace=wrap;html=1;collapsible=0;swimlaneLine=0;align=left;fontColor=default;fillColor=none;swimlaneFillColor=light-dark(#FFFFFF,#666666);strokeColor=default;" parent="YynNyyFr-qXQ2j84sXs9-32" vertex="1">
          <mxGeometry x="20" y="80" width="330" height="210" as="geometry" />
        </mxCell>
        <mxCell id="XopqGps_fkm1R8-ZwHp_-7" style="edgeStyle=orthogonalEdgeStyle;rounded=0;orthogonalLoop=1;jettySize=auto;html=1;exitX=1;exitY=0.5;exitDx=0;exitDy=0;entryX=0;entryY=0.5;entryDx=0;entryDy=0;" parent="XopqGps_fkm1R8-ZwHp_-6" source="XopqGps_fkm1R8-ZwHp_-8" target="XopqGps_fkm1R8-ZwHp_-11" edge="1">
          <mxGeometry relative="1" as="geometry" />
        </mxCell>
        <mxCell id="XopqGps_fkm1R8-ZwHp_-8" value="Jenga API" style="rounded=0;whiteSpace=wrap;html=1;" parent="XopqGps_fkm1R8-ZwHp_-6" vertex="1">
          <mxGeometry x="20" y="37.5" width="100" height="55" as="geometry" />
        </mxCell>
        <mxCell id="XopqGps_fkm1R8-ZwHp_-33" style="edgeStyle=orthogonalEdgeStyle;rounded=0;orthogonalLoop=1;jettySize=auto;html=1;exitX=0.5;exitY=0;exitDx=0;exitDy=0;entryX=0.5;entryY=1;entryDx=0;entryDy=0;" parent="XopqGps_fkm1R8-ZwHp_-6" source="XopqGps_fkm1R8-ZwHp_-10" target="XopqGps_fkm1R8-ZwHp_-8" edge="1">
          <mxGeometry relative="1" as="geometry" />
        </mxCell>
        <mxCell id="XopqGps_fkm1R8-ZwHp_-10" value="AI Agent API" style="rounded=0;whiteSpace=wrap;html=1;" parent="XopqGps_fkm1R8-ZwHp_-6" vertex="1">
          <mxGeometry x="20" y="123" width="100" height="55" as="geometry" />
        </mxCell>
        <mxCell id="XopqGps_fkm1R8-ZwHp_-11" value="Business Logic" style="rounded=0;whiteSpace=wrap;html=1;" parent="XopqGps_fkm1R8-ZwHp_-6" vertex="1">
          <mxGeometry x="180" y="37.5" width="100" height="55" as="geometry" />
        </mxCell>
        <mxCell id="VnRb6XbTlzkvroJsAbk5-55" value="" style="shape=image;verticalLabelPosition=bottom;labelBackgroundColor=default;verticalAlign=top;aspect=fixed;imageAspect=0;image=https://quarkus.io/assets/images/brand/quarkus_logo_horizontal_450px_reverse.png;shadow=1;imageBorder=none;imageBackground=none;" vertex="1" parent="XopqGps_fkm1R8-ZwHp_-6">
          <mxGeometry x="220" width="110" height="17.32" as="geometry" />
        </mxCell>
        <mxCell id="XopqGps_fkm1R8-ZwHp_-23" value="Files" style="sketch=0;html=1;aspect=fixed;strokeColor=none;shadow=0;fillColor=#3B8DF1;verticalAlign=top;labelPosition=center;verticalLabelPosition=bottom;shape=mxgraph.gcp2.files" parent="YynNyyFr-qXQ2j84sXs9-32" vertex="1">
          <mxGeometry x="158.71" y="328.75" width="52.58" height="51" as="geometry" />
        </mxCell>
        <mxCell id="XopqGps_fkm1R8-ZwHp_-24" value="" style="image;aspect=fixed;html=1;points=[];align=center;fontSize=12;image=img/lib/azure2/databases/Azure_Database_PostgreSQL_Server.svg;" parent="YynNyyFr-qXQ2j84sXs9-32" vertex="1">
          <mxGeometry x="266.25" y="321.75" width="43.5" height="58" as="geometry" />
        </mxCell>
        <mxCell id="XopqGps_fkm1R8-ZwHp_-31" value="PostgreSQL" style="text;html=1;align=center;verticalAlign=middle;whiteSpace=wrap;rounded=0;" parent="YynNyyFr-qXQ2j84sXs9-32" vertex="1">
          <mxGeometry x="250" y="378.75" width="76" height="30" as="geometry" />
        </mxCell>
        <mxCell id="XopqGps_fkm1R8-ZwHp_-14" value="" style="image;aspect=fixed;html=1;points=[];align=center;fontSize=12;image=img/lib/azure2/ai_machine_learning/Azure_OpenAI.svg;" parent="YynNyyFr-qXQ2j84sXs9-32" vertex="1">
          <mxGeometry x="65.5" y="329.75" width="49" height="49" as="geometry" />
        </mxCell>
        <mxCell id="XopqGps_fkm1R8-ZwHp_-44" value="" style="endArrow=classic;startArrow=classic;html=1;rounded=0;exitX=0.498;exitY=0.016;exitDx=0;exitDy=0;exitPerimeter=0;entryX=0.5;entryY=1;entryDx=0;entryDy=0;" parent="YynNyyFr-qXQ2j84sXs9-32" source="XopqGps_fkm1R8-ZwHp_-23" edge="1" target="XopqGps_fkm1R8-ZwHp_-6">
          <mxGeometry width="50" height="50" relative="1" as="geometry">
            <mxPoint x="60" y="277.5" as="sourcePoint" />
            <mxPoint x="177" y="247.75" as="targetPoint" />
          </mxGeometry>
        </mxCell>
        <mxCell id="XopqGps_fkm1R8-ZwHp_-75" style="edgeStyle=orthogonalEdgeStyle;rounded=0;orthogonalLoop=1;jettySize=auto;html=1;exitX=0.5;exitY=1;exitDx=0;exitDy=0;entryX=0.5;entryY=0.017;entryDx=0;entryDy=0;entryPerimeter=0;startArrow=classic;startFill=1;" parent="YynNyyFr-qXQ2j84sXs9-32" source="XopqGps_fkm1R8-ZwHp_-10" target="XopqGps_fkm1R8-ZwHp_-14" edge="1">
          <mxGeometry relative="1" as="geometry" />
        </mxCell>
        <mxCell id="XopqGps_fkm1R8-ZwHp_-78" value="LLM" style="text;html=1;align=center;verticalAlign=middle;whiteSpace=wrap;rounded=0;" parent="YynNyyFr-qXQ2j84sXs9-32" vertex="1">
          <mxGeometry x="52" y="373.75" width="76" height="30" as="geometry" />
        </mxCell>
        <mxCell id="VnRb6XbTlzkvroJsAbk5-40" value="" style="endArrow=classic;startArrow=classic;html=1;rounded=0;entryX=0.5;entryY=1;entryDx=0;entryDy=0;" edge="1" parent="YynNyyFr-qXQ2j84sXs9-32">
          <mxGeometry width="50" height="50" relative="1" as="geometry">
            <mxPoint x="288" y="320" as="sourcePoint" />
            <mxPoint x="287.58000000000004" y="288.75" as="targetPoint" />
          </mxGeometry>
        </mxCell>
        <mxCell id="XopqGps_fkm1R8-ZwHp_-86" value="Docker" style="swimlane;whiteSpace=wrap;html=1;collapsible=0;swimlaneLine=0;align=left;fillStyle=auto;swimlaneFillColor=light-dark(#FFFFFF,#415666);fillColor=light-dark(#FFFFFF,#2E3E49);strokeColor=default;strokeWidth=1;" parent="YynNyyFr-qXQ2j84sXs9-9" vertex="1">
          <mxGeometry x="20" y="338.75" width="150" height="170" as="geometry" />
        </mxCell>
        <mxCell id="YynNyyFr-qXQ2j84sXs9-47" value="&lt;span style=&quot;background-color: light-dark(rgb(255, 255, 255), rgb(65, 86, 102));&quot;&gt;Docker Image&lt;/span&gt;" style="image;sketch=0;aspect=fixed;html=1;points=[];align=center;fontSize=12;image=img/lib/mscae/Docker.svg;" parent="XopqGps_fkm1R8-ZwHp_-86" vertex="1">
          <mxGeometry x="44.51" y="100" width="51.83" height="42.5" as="geometry" />
        </mxCell>
        <mxCell id="XopqGps_fkm1R8-ZwHp_-96" value="Dockerfile" style="whiteSpace=wrap;html=1;shape=mxgraph.basic.document;fillColor=light-dark(#FFFFFF,#578ABD);" parent="XopqGps_fkm1R8-ZwHp_-86" vertex="1">
          <mxGeometry x="44.51" y="30" width="55.49" height="47" as="geometry" />
        </mxCell>
        <mxCell id="XopqGps_fkm1R8-ZwHp_-97" style="edgeStyle=orthogonalEdgeStyle;rounded=0;orthogonalLoop=1;jettySize=auto;html=1;exitX=0.5;exitY=1;exitDx=0;exitDy=0;exitPerimeter=0;entryX=0.5;entryY=0.07;entryDx=0;entryDy=0;entryPerimeter=0;" parent="XopqGps_fkm1R8-ZwHp_-86" source="XopqGps_fkm1R8-ZwHp_-96" target="YynNyyFr-qXQ2j84sXs9-47" edge="1">
          <mxGeometry relative="1" as="geometry" />
        </mxCell>
        <mxCell id="VnRb6XbTlzkvroJsAbk5-37" value="Authentication" style="swimlane;whiteSpace=wrap;html=1;collapsible=0;swimlaneLine=0;align=left;fillStyle=auto;swimlaneFillColor=light-dark(#FFFFFF,#415666);fillColor=light-dark(#FFFFFF,#2E3E49);strokeColor=default;strokeWidth=1;" vertex="1" parent="YynNyyFr-qXQ2j84sXs9-9">
          <mxGeometry x="20" y="40" width="150" height="80" as="geometry" />
        </mxCell>
        <mxCell id="VnRb6XbTlzkvroJsAbk5-5" value="" style="shape=image;verticalLabelPosition=bottom;labelBackgroundColor=none;verticalAlign=top;aspect=fixed;imageAspect=0;image=https://www.keycloak.org/resources/images/icon.svg;" vertex="1" parent="VnRb6XbTlzkvroJsAbk5-37">
          <mxGeometry x="10.230000000000018" y="30" width="49.77" height="45" as="geometry" />
        </mxCell>
        <mxCell id="VnRb6XbTlzkvroJsAbk5-44" value="Keycloak" style="text;html=1;align=center;verticalAlign=middle;whiteSpace=wrap;rounded=0;" vertex="1" parent="VnRb6XbTlzkvroJsAbk5-37">
          <mxGeometry x="70" y="30" width="60" height="30" as="geometry" />
        </mxCell>
        <mxCell id="VnRb6XbTlzkvroJsAbk5-51" style="edgeStyle=orthogonalEdgeStyle;rounded=0;orthogonalLoop=1;jettySize=auto;html=1;exitX=1;exitY=0.5;exitDx=0;exitDy=0;exitPerimeter=0;entryX=0;entryY=0.5;entryDx=0;entryDy=0;" edge="1" parent="YynNyyFr-qXQ2j84sXs9-9" source="YynNyyFr-qXQ2j84sXs9-35" target="XopqGps_fkm1R8-ZwHp_-10">
          <mxGeometry relative="1" as="geometry" />
        </mxCell>
        <mxCell id="VnRb6XbTlzkvroJsAbk5-52" style="edgeStyle=orthogonalEdgeStyle;rounded=0;orthogonalLoop=1;jettySize=auto;html=1;entryX=0;entryY=0.5;entryDx=0;entryDy=0;" edge="1" parent="YynNyyFr-qXQ2j84sXs9-9" source="VnRb6XbTlzkvroJsAbk5-58" target="XopqGps_fkm1R8-ZwHp_-8">
          <mxGeometry relative="1" as="geometry">
            <mxPoint x="100" y="202.5" as="sourcePoint" />
            <Array as="points" />
          </mxGeometry>
        </mxCell>
        <mxCell id="XopqGps_fkm1R8-ZwHp_-1" value="User" style="text;html=1;align=center;verticalAlign=middle;whiteSpace=wrap;rounded=0;" parent="1" vertex="1">
          <mxGeometry x="50" y="230" width="60" height="30" as="geometry" />
        </mxCell>
        <mxCell id="XopqGps_fkm1R8-ZwHp_-55" value="&lt;div&gt;Deployment&lt;/div&gt;" style="swimlane;whiteSpace=wrap;html=1;swimlaneFillColor=none;connectable=1;noLabel=0;swimlaneHead=1;absoluteArcSize=0;fixDash=0;dropTarget=1;collapsible=0;horizontal=1;swimlaneBody=1;fillOpacity=0;strokeOpacity=100;align=left;fontStyle=1;fontSize=16;dashed=1;strokeWidth=3;swimlaneLine=0;fillColor=light-dark(#FFFFFF,#415666);" parent="1" vertex="1">
          <mxGeometry x="190" y="640" width="230" height="110" as="geometry" />
        </mxCell>
        <mxCell id="XopqGps_fkm1R8-ZwHp_-99" value="" style="image;sketch=0;aspect=fixed;html=1;points=[];align=center;fontSize=12;image=img/lib/mscae/Docker.svg;" parent="XopqGps_fkm1R8-ZwHp_-55" vertex="1">
          <mxGeometry x="28.169999999999987" y="33.75" width="51.83" height="42.5" as="geometry" />
        </mxCell>
        <mxCell id="XopqGps_fkm1R8-ZwHp_-103" value="" style="endArrow=classic;html=1;rounded=0;" parent="XopqGps_fkm1R8-ZwHp_-55" edge="1">
          <mxGeometry width="50" height="50" relative="1" as="geometry">
            <mxPoint x="80" y="54.76" as="sourcePoint" />
            <mxPoint x="130" y="55" as="targetPoint" />
          </mxGeometry>
        </mxCell>
        <mxCell id="XopqGps_fkm1R8-ZwHp_-105" value="Jenga" style="swimlane;whiteSpace=wrap;html=1;container=0;" parent="XopqGps_fkm1R8-ZwHp_-55" vertex="1">
          <mxGeometry x="130" y="15" width="90" height="80" as="geometry">
            <mxRectangle x="130" y="15" width="70" height="30" as="alternateBounds" />
          </mxGeometry>
        </mxCell>
        <mxCell id="XopqGps_fkm1R8-ZwHp_-106" value="App" style="text;html=1;align=center;verticalAlign=middle;resizable=0;points=[];autosize=1;strokeColor=none;fillColor=none;" parent="XopqGps_fkm1R8-ZwHp_-105" vertex="1">
          <mxGeometry y="25" width="40" height="30" as="geometry" />
        </mxCell>
        <mxCell id="XopqGps_fkm1R8-ZwHp_-107" value="Libs" style="text;html=1;align=center;verticalAlign=middle;resizable=0;points=[];autosize=1;strokeColor=none;fillColor=none;" parent="XopqGps_fkm1R8-ZwHp_-105" vertex="1">
          <mxGeometry x="-5" y="50" width="50" height="30" as="geometry" />
        </mxCell>
        <mxCell id="XopqGps_fkm1R8-ZwHp_-101" value="" style="outlineConnect=0;dashed=0;verticalLabelPosition=bottom;verticalAlign=top;align=center;html=1;shape=mxgraph.aws3.ec2_compute_container;fillColor=light-dark(#F58534,#578ABD);gradientColor=none;" parent="XopqGps_fkm1R8-ZwHp_-105" vertex="1">
          <mxGeometry x="40" y="40" width="40" height="28.25" as="geometry" />
        </mxCell>
        <mxCell id="XopqGps_fkm1R8-ZwHp_-113" value="Docker Image" style="text;html=1;align=center;verticalAlign=middle;whiteSpace=wrap;rounded=0;" parent="XopqGps_fkm1R8-ZwHp_-55" vertex="1">
          <mxGeometry x="14.09" y="76.25" width="80" height="30" as="geometry" />
        </mxCell>
        <mxCell id="XopqGps_fkm1R8-ZwHp_-82" value="" style="verticalLabelPosition=bottom;html=1;verticalAlign=top;align=center;strokeColor=none;fillColor=#00BEF2;shape=mxgraph.azure.github_code;pointerEvents=1;" parent="1" vertex="1">
          <mxGeometry x="290" y="590" width="30" height="30" as="geometry" />
        </mxCell>
        <mxCell id="XopqGps_fkm1R8-ZwHp_-94" value="Github Actions" style="text;html=1;align=center;verticalAlign=middle;whiteSpace=wrap;rounded=0;" parent="1" vertex="1">
          <mxGeometry x="320" y="590" width="60" height="30" as="geometry" />
        </mxCell>
        <mxCell id="XopqGps_fkm1R8-ZwHp_-112" value="" style="endArrow=classic;html=1;rounded=0;exitX=0.5;exitY=1;exitDx=0;exitDy=0;entryX=0.411;entryY=0.016;entryDx=0;entryDy=0;entryPerimeter=0;" parent="1" source="XopqGps_fkm1R8-ZwHp_-86" target="XopqGps_fkm1R8-ZwHp_-55" edge="1">
          <mxGeometry width="50" height="50" relative="1" as="geometry">
            <mxPoint x="510" y="590" as="sourcePoint" />
            <mxPoint x="560" y="540" as="targetPoint" />
          </mxGeometry>
        </mxCell>
        <mxCell id="VnRb6XbTlzkvroJsAbk5-42" value="" style="endArrow=classic;startArrow=classic;html=1;rounded=0;exitX=0.833;exitY=0.167;exitDx=0;exitDy=0;exitPerimeter=0;" edge="1" parent="1" source="YynNyyFr-qXQ2j84sXs9-31">
          <mxGeometry width="50" height="50" relative="1" as="geometry">
            <mxPoint x="110" y="160" as="sourcePoint" />
            <mxPoint x="210" y="120" as="targetPoint" />
          </mxGeometry>
        </mxCell>
        <mxCell id="VnRb6XbTlzkvroJsAbk5-65" value="&lt;span&gt;&lt;span style=&quot;color: light-dark(rgb(0, 0, 0), rgb(255, 255, 255));&quot;&gt;OAuth&lt;/span&gt;&lt;/span&gt;" style="edgeLabel;html=1;align=center;verticalAlign=middle;resizable=0;points=[];" vertex="1" connectable="0" parent="VnRb6XbTlzkvroJsAbk5-42">
          <mxGeometry x="-0.1983" y="3" relative="1" as="geometry">
            <mxPoint as="offset" />
          </mxGeometry>
        </mxCell>
        <mxCell id="VnRb6XbTlzkvroJsAbk5-49" value="Use" style="endArrow=classic;startArrow=classic;html=1;rounded=0;exitX=0.964;exitY=0.742;exitDx=0;exitDy=0;exitPerimeter=0;entryX=0;entryY=0.5;entryDx=0;entryDy=0;" edge="1" parent="1" source="YynNyyFr-qXQ2j84sXs9-31" target="YynNyyFr-qXQ2j84sXs9-27">
          <mxGeometry width="50" height="50" relative="1" as="geometry">
            <mxPoint x="380" y="290" as="sourcePoint" />
            <mxPoint x="430" y="240" as="targetPoint" />
          </mxGeometry>
        </mxCell>
      </root>
    </mxGraphModel>
  </diagram>
</mxfile>
